<svg fill="currentColor" id="Layer_2" data-name="Layer 2" xmlns="http://www.w3.org/2000/svg" viewBox="0 0 37.48 38"><g id="Layer_1-2" data-name="Layer 1">
    <path d="m34.07,38H3.41c-1.88,0-3.41-1.69-3.41-3.78V3.78C0,1.69,1.53,0,3.41,0h30.66c1.88,0,3.41,1.69,3.41,3.78v30.45c0,2.08-1.53,3.78-3.41,3.78ZM3.41,2c-.88,0-1.6.8-1.6,1.78v30.45c0,.98.72,1.78,1.6,1.78h30.66c.88,0,1.6-.8,1.6-1.78V3.78c0-.98-.72-1.78-1.6-1.78H3.41Z"/>
    <circle cx="8.12" cy="10.27" r="2.29"/>
    <circle cx="19" cy="10.27" r="2.29"/>
    <circle cx="29.89" cy="10.27" r="2.29"/>
  </g>
</svg>