<svg fill="currentColor" id="Layer_2" data-name="Layer 2" xmlns="http://www.w3.org/2000/svg" viewBox="0 0 40.18 40.18"><g id="Layer_1-2" data-name="Layer 1">
    <g>
      <path d="m32.82,0H7.36C3.3,0,0,3.3,0,7.36v25.46c0,4.06,3.3,7.36,7.36,7.36h25.46c4.06,0,7.36-3.3,7.36-7.36V7.36c0-4.06-3.3-7.36-7.36-7.36Zm5.13,7.36v2.5H13.23V2.23h19.6c2.83,0,5.13,2.3,5.13,5.13ZM7.36,2.23h3.63v7.63H2.23v-2.5c0-2.83,2.3-5.13,5.13-5.13Zm-5.13,30.59V12.09h8.76v25.86h-3.63c-2.83,0-5.13-2.3-5.13-5.13Zm30.59,5.13H13.23V12.09h24.73v20.73c0,2.83-2.3,5.13-5.13,5.13Z"/>
      <path d="m29.9,21.87v2.57l1.91-1.91v7.28c0,1.05-.86,1.91-1.91,1.91h-6.9l1.91-1.91h-2.57l-3.02,3.02,3.02,3.02h2.57l-1.91-1.91h6.9c2.28,0,4.14-1.86,4.14-4.14v-7.28l1.91,1.91v-2.57l-3.02-3.02-3.02,3.02Z"/>
    </g>
  </g>
</svg>