<svg fill="currentColor" id="Layer_2" data-name="Layer 2" xmlns="http://www.w3.org/2000/svg" viewBox="0 0 41.94 41.94"><g id="Layer_1-2" data-name="Layer 1">
    <path d="m28.75,37.39c-2.43,1.16-5.09,1.75-7.79,1.75-10.02,0-18.17-8.15-18.17-18.17,0-4.3,1.48-8.36,4.19-11.61v3.23h2.8V4.19H1.4v2.8h3.97C1.9,10.82,0,15.8,0,20.97,0,32.53,9.41,41.94,20.97,41.94c3.11,0,6.18-.68,8.99-2.02l-1.2-2.52Z"/>
    <path d="m27.96,11.18c-4.42,0-8.04,3.43-8.36,7.77-1.54-1.4-3.54-2.18-5.62-2.18h-5.59v5.59c0,4.63,3.76,8.39,8.39,8.39h2.8v5.59h2.8v-11.18h2.8c4.62,0,8.39-3.76,8.39-8.39v-5.59h-5.59Zm-11.18,16.77c-3.08,0-5.59-2.51-5.59-5.59v-2.8h2.8c3.08,0,5.59,2.51,5.59,5.59v.82l-3.21-3.21-1.98,1.98,3.21,3.21h-.82Zm13.98-11.18c0,3.08-2.51,5.59-5.59,5.59h-.82l3.21-3.21-1.98-1.98-3.21,3.21v-.82c0-3.08,2.51-5.59,5.59-5.59h2.8v2.8Z"/>
    <path d="m41.94,20.97C41.94,9.41,32.53,0,20.97,0c-3.11,0-6.18.68-8.99,2.02l1.2,2.52c2.43-1.16,5.09-1.75,7.79-1.75,10.02,0,18.17,8.15,18.17,18.17,0,4.3-1.48,8.36-4.19,11.61v-3.23h-2.8v8.39h8.39v-2.8h-3.97c3.47-3.83,5.38-8.81,5.37-13.98"/>
  </g>
</svg>