<svg fill="currentColor" id="Layer_2" data-name="Layer 2" xmlns="http://www.w3.org/2000/svg" viewBox="0 0 39.73 39.73"><g id="Layer_1-2" data-name="Layer 1">
    <path d="m38.18,21.24c.49.47.87,1.01,1.14,1.63.27.62.41,1.27.41,1.96s-.13,1.33-.39,1.92c-.26.59-.61,1.13-1.07,1.59-.45.47-.98.82-1.57,1.07-.59.25-1.24.38-1.94.39-.27,0-.54-.02-.81-.06l-9.14,4.56c.01.08.02.16.02.23v.23c0,.69-.13,1.33-.39,1.92-.26.59-.61,1.13-1.07,1.59-.45.47-.98.82-1.57,1.07-.59.25-1.24.38-1.94.39-.67,0-1.31-.13-1.9-.39-.59-.26-1.13-.61-1.59-1.05-.47-.44-.83-.96-1.09-1.57-.26-.61-.39-1.24-.41-1.9v-.25c0-.08.01-.17.04-.27l-9.14-4.56c-.27.04-.54.06-.81.06-.69,0-1.33-.13-1.92-.39-.59-.26-1.13-.61-1.59-1.07-.47-.45-.82-.98-1.07-1.57-.25-.59-.38-1.24-.39-1.94,0-.92.23-1.77.7-2.54.47-.78,1.11-1.38,1.92-1.82l3.4-12.46c-.7-.89-1.05-1.91-1.05-3.05,0-.69.13-1.33.39-1.92.26-.59.61-1.13,1.07-1.59.45-.47.98-.82,1.57-1.07.59-.25,1.24-.38,1.94-.39.89,0,1.72.22,2.48.66.76.44,1.37,1.05,1.82,1.82h11.25c.45-.78,1.06-1.38,1.82-1.82.76-.44,1.59-.66,2.48-.66.69,0,1.33.13,1.92.39.59.26,1.13.61,1.59,1.07.47.45.82.98,1.07,1.57.25.59.38,1.24.39,1.94,0,.54-.08,1.07-.25,1.57-.17.5-.42.98-.76,1.42l4.42,13.29Zm-8.38,3.59c0-.71.14-1.39.43-2.04.28-.65.7-1.2,1.24-1.67l-8.71-6.54-12.86,9.64.04.6h19.87ZM9.93,9.93c-.61,0-1.2-.11-1.78-.33l-2.79,10.28c.71.06,1.38.27,2,.6.62.34,1.15.79,1.59,1.36l11.76-8.81-6.79-5.08c-.48.62-1.06,1.11-1.75,1.46-.69.35-1.43.52-2.23.52Zm24.08,9.99c.1-.03.22-.04.35-.04s.25,0,.37-.02h.19c.06,0,.13,0,.19.02l-3.43-10.32c-.63.25-1.26.37-1.88.37-.26,0-.51-.02-.76-.06l-4.21,3.16,9.18,6.89ZM29.8,2.48c-.35,0-.67.06-.97.19-.3.13-.56.3-.78.52-.22.22-.4.49-.54.8-.14.31-.21.63-.19.97,0,.35.06.67.19.97.13.3.3.56.52.78s.49.4.8.54c.31.14.63.21.97.19.35,0,.67-.06.97-.19.3-.13.56-.3.78-.52.22-.22.4-.49.54-.8.14-.31.21-.63.19-.97,0-.35-.06-.67-.19-.97-.13-.3-.3-.56-.52-.78-.22-.22-.49-.4-.8-.54-.31-.14-.63-.21-.97-.19Zm-4.97,2.48h-9.93l-.04.6,7.9,5.92,3.74-2.81c-.54-.47-.96-1.02-1.24-1.67-.28-.65-.43-1.33-.43-2.04Zm-14.9-2.48c-.35,0-.67.06-.97.19-.3.13-.56.3-.78.52-.22.22-.4.49-.54.8-.14.31-.21.63-.19.97,0,.35.06.67.19.97.13.3.3.56.52.78.22.22.49.4.8.54.31.14.63.21.97.19.35,0,.67-.06.97-.19.3-.13.56-.3.78-.52.22-.22.4-.49.54-.8.14-.31.21-.63.19-.97,0-.35-.06-.67-.19-.97-.13-.3-.3-.56-.52-.78-.22-.22-.49-.4-.8-.54s-.63-.21-.97-.19ZM2.48,24.83c0,.35.06.67.19.97.13.3.3.56.52.78.22.22.49.4.8.54.31.14.63.21.97.19.35,0,.67-.06.97-.19.3-.13.56-.3.78-.52s.4-.49.54-.8c.14-.31.21-.63.19-.97,0-.35-.06-.67-.19-.97-.13-.3-.3-.56-.52-.78-.22-.22-.49-.4-.8-.54-.31-.14-.63-.21-.97-.19-.35,0-.67.06-.97.19-.3.13-.56.3-.78.52-.22.22-.4.49-.54.8s-.21.63-.19.97Zm17.38,12.42c.35,0,.67-.06.97-.19.3-.13.56-.3.78-.52.22-.22.4-.49.54-.8.14-.31.21-.63.19-.97,0-.35-.06-.67-.19-.97-.13-.3-.3-.56-.52-.78-.22-.22-.49-.4-.8-.54-.31-.14-.63-.21-.97-.19-.35,0-.67.06-.97.19-.3.13-.56.3-.78.52-.22.22-.4.49-.54.8-.14.31-.21.63-.19.97,0,.35.06.67.19.97.13.3.3.56.52.78.22.22.49.4.8.54.31.14.63.21.97.19Zm0-7.45c.81,0,1.58.19,2.31.56.72.38,1.32.91,1.78,1.59l7.28-3.63c-.14-.16-.28-.32-.41-.49-.13-.17-.25-.34-.37-.52H9.27c-.1.18-.22.36-.35.52-.13.17-.27.33-.43.49l7.28,3.63c.45-.67,1.04-1.2,1.77-1.57.72-.38,1.5-.57,2.33-.58Zm14.9-2.48c.35,0,.67-.06.97-.19.3-.13.56-.3.78-.52s.4-.49.54-.8c.14-.31.21-.63.19-.97,0-.43-.1-.83-.31-1.2-.21-.38-.49-.67-.85-.89l-.02.02-.02-.02.02-.02c-.41-.25-.85-.37-1.3-.37-.35,0-.67.06-.97.19-.3.13-.56.3-.78.52-.22.22-.4.49-.54.8-.14.31-.21.63-.19.97,0,.35.06.67.19.97.13.3.3.56.52.78s.49.4.8.54c.31.14.63.21.97.19Z"/>
  </g>
</svg>