<svg fill="currentColor" id="Layer_2" data-name="Layer 2" xmlns="http://www.w3.org/2000/svg" viewBox="0 0 38.51 38.51"><g id="Layer_1-2" data-name="Layer 1">
    <path fill-rule="evenodd" d="m0,0h2.41v36.11h36.11v2.41H0V0Zm24.07,27.68c0,.66.54,1.2,1.2,1.2h9.63c.66,0,1.2-.54,1.2-1.2v-9.63c0-.66-.54-1.2-1.2-1.2s-1.2.54-1.2,1.2v6.26l-8.7-10.63c-.42-.51-1.18-.59-1.69-.17-.03.02-.06.05-.09.08l-6.23,6.23L8.19,7.72c-.41-.52-1.17-.61-1.69-.2-.5.39-.61,1.09-.25,1.62l9.63,13.24c.39.54,1.14.66,1.68.27.05-.04.1-.08.14-.12l6.28-6.28,8.38,10.24h-7.09c-.66,0-1.2.54-1.2,1.2"/>
  </g>
</svg>